<?xml version="1.0" encoding="UTF-8"?>
<svg id="Layer_2" data-name="Layer 2" xmlns="http://www.w3.org/2000/svg" viewBox="0 0 1008.24 1008.24">
  <defs>
    <style>
      .cls-1 {
        fill: #f6d0ff;
      }

      .cls-2 {
        fill: #dfd9ff;
      }

      .cls-3 {
        fill: #d6a7ff;
      }
    </style>
  </defs>
  <g id="Layer_1-2" data-name="Layer 1">
    <g>
      <path class="cls-3" d="M429.12,432.96c-21.206,3.14-38.882,10.692-53.775,26.379-15.225,4.076-3.738-21.949-.508-28.342,24.016-47.529,77.602-50.045,123.398-36.44-.372-20.421-.409-41.389,6.955-60.727.787-2.066,4.706-10.669,6.178-11.154,7.702-2.536,30.22,12.323,30.064,20.548-.025,1.333-11.283,10.795-13.41,13.437-8.532,10.597-13.33,24.545-15.376,37.894,11.39-2.889,21.691-5.609,33.595-5.755,1.811-.022,4.716.65,5.76-.96,39.462-2.15,74.377,13.264,88.076,52.564,1.846,5.296,7.818,22.791-3.874,19.247-1.163-.353-12.175-10.69-15.169-12.683-7.295-4.857-16.011-8.718-24.47-11.05-4.126-1.138-15.556-4.053-19.171-3.519-6.025.889-14.457,27.117-15.509,33.005-4.309,24.118,6.186,46.086,17.03,66.85-21.246,32.799-26.164,77.251,4.425,105.995,5.785-2.03,11.482-5.538,16.154-9.476,2.523-2.126,10.51-11.887,11.751-12.261,12.18-3.665,6.773,16.255,5.201,22.493-6.691,26.554-24.121,42.227-51.004,46.436-1.538.056-3.98-.596-4.8.96-1.262.111-2.57-.068-3.84,0l-.48-.941-.48.941c-1.273.049-2.565.009-3.84,0l-.48-.941-.48.941c-1.599-.012-3.203.041-4.8,0-.676-1.481-2.585-.878-3.84-.96-10.546-.693-19.278-5.163-29.76-6.72-6.583-.978-7.797-.92-14.4,0-10.824,1.508-19.747,5.853-30.72,6.72-1.526.121-3.974-.642-4.8.96-4.121.119-8.358.1-12.48,0-.829-1.627-3.289-.806-4.8-.96-28.339-2.88-47.158-23.56-52.354-50.846-1.244-6.534-4.949-22.696,7.011-17.633.907.384,9.772,10.742,12.251,12.771,2.606,2.133,14.281,10.206,17.049,9.499,2.389-.61,10.751-12.778,12.367-15.546,14.061-24.09,12.78-48.411,2.221-73.59-1.563-3.728-9.239-16.418-9.094-18.658.152-2.357,7.203-13.55,8.795-17.189,10.019-22.91,12.334-46.71,1.259-69.752-1.089-2.265-5.651-10.171-7.186-11.534-2.884-2.562-6.182-.364-8.64,0ZM445.44,393.6c-36.289,1.809-63.486,22.607-71.53,58.54,16.465-15.047,35.633-23.956,58.09-24.94,6.092-.267,13.102-.248,19.2,0,7.708.313,13.365.888,20.944,2.576,7.287,1.623,29.381,10.926,33.296,10.926,3.454,0,22.086-8.054,27.917-9.584,8.905-2.337,16.177-3.517,25.363-3.917,6.376-.277,13.784-.277,20.16,0,17.785.773,34.971,6.71,49.276,17.444,2.178,1.634,6.488,6.911,7.857,7.508,1.204.524,1.673-.103,1.374-1.369-3.898-16.492-16.373-35.023-30.37-44.52-13.022-8.835-26.063-11.887-41.577-12.663l-.48-.941-.48.941c-3.156-.12-6.443-.1-9.6,0l-.48-.941-.48.941c-10.881.479-20.141,2.022-30.724,4.316-4.175.905-9.334,3.487-13.184,4.093-9.592,1.509-21.796-4.362-31.733-6.207-7.371-1.369-13.885-1.891-21.318-2.202l-.48-.941-.48.941c-3.158-.096-6.445-.124-9.6,0l-.48-.941-.48.941ZM473.28,519.36c-8.858,1.056-11.858,10.243-5.273,16.313,3.186,2.937,21.363,13.103,23.381,7.073,1.86-5.561-6.665-21.641-12.14-23.133-1.181-.322-2.029-.17-3.088-.253-.134-1.444-2.746-1.444-2.88,0ZM537.377,518.59c-2.052.282-4.971,1.711-6.544,3.123-3.352,3.01-12.775,19.034-7.642,22.141,4.562,2.762,21.691-5.934,24.438-10.142,4.695-7.193-2.135-16.237-10.251-15.122ZM446.4,679.68c.462,1.247,1.826.925,2.88.96,5.062.169,10.295.126,15.36,0,1.264-.032,3.174.482,3.84-.96,12.6-1.582,20.462-6.267,34.56-6.72,1.588-.051,3.211-.041,4.8,0,11.942.307,15.431,2.653,26.089,5.111,41.841,9.65,75.946-9.593,78.541-54.067l-8.179,8.607c-23.245,19.414-50.723,21.02-78.707,11.564-4.092-1.383-18.618-8.802-21.032-8.645-2.168.14-13.045,6.083-16.636,7.428-33.808,12.664-65.816,8.474-90.468-18.957,2.31,28.75,19.07,52.255,48.95,55.68Z"/>
      <path class="cls-2" d="M512.64,678.72h-14.4c6.603-.92,7.817-.978,14.4,0Z"/>
      <path class="cls-2" d="M437.76,432.96h-8.64c2.458-.364,5.756-2.562,8.64,0Z"/>
      <path class="cls-1" d="M552,387.84c-1.044,1.61-3.949.938-5.76.96,1.067-1.668,3.941-.861,5.76-.96Z"/>
      <path class="cls-2" d="M450.24,686.4c-1.696-.041-3.398.426-4.8-.96,1.511.154,3.971-.667,4.8.96Z"/>
      <path class="cls-2" d="M467.52,685.44c-1.405,1.385-3.104.911-4.8.96.826-1.602,3.274-.839,4.8-.96Z"/>
      <path class="cls-2" d="M565.44,685.44c-1.461.229-2.527.76-4.8.96.82-1.556,3.262-.904,4.8-.96Z"/>
      <path class="cls-2" d="M546.24,686.4c-1.263-.033-3.173.483-3.84-.96,1.255.082,3.164-.521,3.84.96Z"/>
      <path class="cls-2" d="M552,686.4c-.32-.002-.64.002-.96,0l.48-.941.48.941Z"/>
      <path class="cls-2" d="M556.8,686.4c-.319.017-.641-.012-.96,0l.48-.941.48.941Z"/>
      <path class="cls-1" d="M578.88,427.2c-6.376-.277-13.784-.277-20.16,0,5.844-1.607,14.316-1.607,20.16,0Z"/>
      <path class="cls-1" d="M451.2,427.2c-6.098-.248-13.108-.267-19.2,0,5.501-1.606,13.621-1.612,19.2,0Z"/>
      <path class="cls-1" d="M507.84,672.96c-1.589-.041-3.212-.051-4.8,0,.632-1.514,4.168-1.514,4.8,0Z"/>
      <path class="cls-1" d="M468.48,679.68c-.666,1.442-2.576.928-3.84.96.682-1.533,2.623-.807,3.84-.96Z"/>
      <path class="cls-2" d="M476.16,519.36c-.869-.068-2.034-.101-2.88,0,.134-1.444,2.746-1.444,2.88,0Z"/>
      <path class="cls-1" d="M449.28,680.64c-1.054-.035-2.418.287-2.88-.96,1.018.117,2.43-.349,2.88.96Z"/>
      <path class="cls-2" d="M446.4,393.6c-.32.013-.641-.016-.96,0l.48-.941.48.941Z"/>
      <path class="cls-2" d="M456.96,393.6c-.319-.013-.64.01-.96,0l.48-.941.48.941Z"/>
      <path class="cls-2" d="M554.88,393.6c-.32.01-.641-.014-.96,0l.48-.941.48.941Z"/>
      <path class="cls-2" d="M565.44,393.6c-.319-.016-.64.012-.96,0l.48-.941.48.941Z"/>
    </g>
  </g>
</svg>