<?xml version="1.0" encoding="UTF-8"?>
<svg id="Layer_2" data-name="Layer 2" xmlns="http://www.w3.org/2000/svg" viewBox="0 0 1008 1008.24">
  <defs>
    <style>
      .cls-1 {
        fill: #463654;
      }

      .cls-2 {
        fill: #d0a4f8;
      }

      .cls-3 {
        fill: #040204;
      }

      .cls-4 {
        fill: #d2a4fc;
      }

      .cls-5 {
        fill: #16111a;
      }

      .cls-6 {
        fill: #584469;
      }
    </style>
  </defs>
  <g id="Layer_1-2" data-name="Layer 1">
    <g>
      <path class="cls-2" d="M519.365,387.743c44.425-10.837,92.809-6.538,117.888,36.183,5.011,8.536,18.101,34.485,5.209,40.34-9.019,4.096-16.011-7.119-22.96-12.036-12.217-8.645-26.13-12.849-40.925-14.643-17.069,22.895-14.924,51.575-3.703,76.537,1.902,4.232,8.859,14.653,8.864,18.07.003,2.33-10.483,21.073-12.293,26.158-7.763,21.81-7.492,43.781,4.745,63.871,1.35,2.216,6.612,10.29,8.917,10.277,1.01-.006,9.175-5.614,10.552-6.749,6.465-5.326,10.174-15.251,19.223-14.416,18.296,1.688,3.433,39.602-1.999,48.912-14.593,25.016-42.091,33.823-69.993,30.778-11.93-1.302-22.953-7.153-34.525-7.713-15.932-.77-26.655,6.506-41.341,7.709-40.388,3.308-69.993-14.189-78.714-54.683-1.743-8.093-5.598-22.366,5.992-24.746,9.195-1.888,11.252,5.855,16.546,10.852,2.717,2.564,14.432,11.894,17.642,10.927,1.08-.325,7.657-9.744,8.713-11.515,18.129-30.406,8.476-61.12-7.979-89.643,1.799-6.174,6.003-11.246,8.703-17.129,8.445-18.404,12.166-37.124,6.822-57.061-1.03-3.843-7.177-19.155-10.537-20.186-8.461-2.598-34.801,8.521-42.444,13.824s-16.166,19.678-26.238,10.968c-5.269-4.556-2.955-11.897-1.417-17.501,7.969-29.031,30.618-51.789,59.798-59.228,22.749-5.8,45.921-2.532,68.568,1.852.404-19.69,1.572-43.972,10.679-61.79,4.859-9.507,6.859-9.393,16.95-6.626,8.065,2.211,15.712,7.154,20.768,13.789,11.764,15.439,1.787,14.467-7.142,24.366-7.22,8.005-12.845,19.529-14.37,30.253ZM540.298,345.338c3.855-6.647-21.619-26.323-29.592-21.428-1.276.784-5.438,10.853-6.187,13.009-6.514,18.75-6.614,38.864-6.286,58.503-45.842-14.103-99.63-11.265-123.238,36.591-2.623,5.317-13.874,29.533-1.125,27.744,1.45-.204,10.91-9.405,13.667-11.366,9.041-6.432,20.382-11.422,31.191-13.926,3.399-.787,13.775-2.949,16.577-2.594,5.587.707,13.293,20.418,14.662,25.733,6.942,26.953-1.828,51.378-15.045,74.604,17.728,29.977,25.393,62.756,5.739,94.064-1.516,2.415-9.191,13.309-11.19,13.699-3.984.778-19.084-10.541-22.462-13.688-3.696-3.444-6.934-11.863-13.416-8.67-4.17,2.054-.324,17.424.697,21.386,10.093,39.164,44.117,53.362,82.065,45.033,6.013-1.32,11.704-4.169,17.806-5.232,21.2-3.693,34.03,6.213,53.529,7.428,33.109,2.062,59.216-13.753,67.941-46.268,1.501-5.595,7.211-27.976-5.062-22.33-1.005.462-7.745,8.947-10.118,10.993-2.357,2.033-14.846,10.866-17.114,10.434-18.119-16.477-25.372-41.217-21.457-65.312,2.529-15.563,9.663-28.41,16.051-42.455-18.62-30.197-26.519-70.311-1.276-99.255,15.789,1.574,31.132,5.969,44.377,14.828,2.918,1.952,14.13,12.392,15.175,12.703,12.631,3.758,3.443-18.801,1.4-23.515-22.379-51.632-77.925-55.168-125.923-40.63,2.763-15.19,7.97-30.752,18.704-42.236,2.083-2.229,9.593-7.299,9.91-7.846Z"/>
      <path class="cls-3" d="M540.298,345.338c-.317.547-7.827,5.617-9.91,7.846-10.735,11.484-15.941,27.046-18.704,42.236,47.999-14.539,103.544-11.003,125.923,40.63,2.043,4.713,11.231,27.272-1.4,23.515-1.044-.311-12.257-10.751-15.175-12.703-13.245-8.859-28.588-13.254-44.377-14.828-25.243,28.944-17.344,69.058,1.276,99.255-6.388,14.045-13.523,26.892-16.051,42.455-3.915,24.096,3.338,48.835,21.457,65.312,2.268.432,14.757-8.401,17.114-10.434,2.373-2.047,9.113-10.531,10.118-10.993,12.273-5.646,6.563,16.735,5.062,22.33-8.725,32.515-34.832,48.33-67.941,46.268-19.5-1.214-32.33-11.12-53.529-7.428-6.103,1.063-11.793,3.913-17.806,5.232-37.949,8.329-71.972-5.869-82.065-45.033-1.021-3.962-4.867-19.332-.697-21.386,6.482-3.193,9.72,5.226,13.416,8.67,3.378,3.147,18.478,14.466,22.462,13.688,1.999-.39,9.674-11.284,11.19-13.699,19.655-31.308,11.99-64.087-5.739-94.064,13.217-23.226,21.987-47.651,15.045-74.604-1.369-5.315-9.075-25.026-14.662-25.733-2.802-.355-13.178,1.807-16.577,2.594-10.809,2.504-22.15,7.494-31.191,13.926-2.757,1.961-12.216,11.163-13.667,11.366-12.749,1.79-1.498-22.426,1.125-27.744,23.608-47.856,77.395-50.694,123.238-36.591-.328-19.638-.228-39.752,6.286-58.503.749-2.156,4.911-12.226,6.187-13.009,7.972-4.895,33.447,14.781,29.592,21.428ZM373.45,453.012c29.169-28.142,69.615-31.152,107.284-20.409,4.805,1.37,22.087,8.85,24.727,8.792,2.678-.059,14.034-5.675,17.945-6.893,34.085-10.616,70.03-12.173,100.892,8.135,4.558,3,8.345,7.237,13.121,9.906-13.476-53.743-59.662-66.115-109.428-55.687-5.75,1.205-12.817,4.243-17.98,5.057-10.129,1.595-27.694-5.832-39.268-7.31-46.531-5.944-86.159,9.839-97.294,58.409ZM512.977,551.532c21.743,19.078,61.225-8.983,45.942-34.894-8.633-14.637-29.337-13.912-40.562-2.723-2.982,2.973-9.436,15.959-11.97,15.937-2.458-.021-6.881-10.07-8.71-12.452-18.65-24.288-56.174-7.958-44.431,21.386,6.007,15.011,30.051,24.946,43.973,15.42,2.726-1.865,7.289-9.106,9.18-9.094,2.67.016,4.907,4.952,6.579,6.419ZM612.47,623.852c-22.283,26.441-54.34,31.352-86.351,20.595-7.431-2.497-14.142-6.656-21.576-9.078-34.788,19.81-79.581,21.827-106.629-11.512-.336,28.312,19.888,54.021,48.98,56.607,28.317,2.517,46.466-12.334,74.794-5.672,16.032,3.77,25.488,7.959,43.009,5.426,29.286-4.233,46.927-27.518,47.772-56.365Z"/>
      <path class="cls-4" d="M612.47,623.852c-.845,28.847-18.486,52.132-47.772,56.365-17.521,2.532-26.977-1.656-43.009-5.426-28.327-6.661-46.476,8.189-74.794,5.672-29.092-2.585-49.316-28.295-48.98-56.607,27.048,33.339,71.84,31.322,106.629,11.512,7.433,2.423,14.145,6.581,21.576,9.078,32.01,10.757,64.068,5.845,86.351-20.595Z"/>
      <path class="cls-5" d="M512.977,551.532c-1.672-1.467-3.909-6.403-6.579-6.419-1.891-.011-6.454,7.229-9.18,9.094-13.922,9.525-37.965-.409-43.973-15.42-11.743-29.344,25.781-45.674,44.431-21.386,1.829,2.382,6.252,12.431,8.71,12.452,2.534.022,8.988-12.965,11.97-15.937,11.225-11.19,31.929-11.914,40.562,2.723,15.283,25.911-24.199,53.972-45.942,34.894ZM474.056,511.776c-21.56,1.199-21.161,29.59-1.421,37.378,36.246,14.299,30.221-38.98,1.421-37.378ZM532.551,511.788c-19.825,3.369-29.484,45.459,3.38,39.852,26.769-4.567,28.401-45.253-3.38-39.852Z"/>
      <path class="cls-4" d="M373.45,453.012c11.135-48.57,50.762-64.353,97.294-58.409,11.574,1.479,29.139,8.906,39.268,7.31,5.163-.813,12.23-3.852,17.98-5.057,49.765-10.427,95.952,1.945,109.428,55.687-4.777-2.669-8.563-6.907-13.121-9.906-30.862-20.309-66.807-18.752-100.892-8.135-3.911,1.218-15.268,6.834-17.945,6.893-2.639.059-19.921-7.421-24.727-8.792-37.669-10.743-78.115-7.733-107.284,20.409Z"/>
      <path class="cls-6" d="M532.551,511.788c31.78-5.4,30.149,35.285,3.38,39.852-32.864,5.607-23.205-36.483-3.38-39.852ZM522.476,543.955c4.382,4.479,35.732-8.373,24.166-21.761-2.886-3.341-8.169-3.675-12.202-2.754-5.917,1.352-16.427,19.953-11.964,24.515Z"/>
      <path class="cls-1" d="M474.056,511.776c28.8-1.601,34.825,51.678-1.421,37.378-19.741-7.788-20.14-36.179,1.421-37.378ZM491.52,541.311c.089-.131,1.425.783,2.223-1.155,5.155-12.518-13.039-31.682-26.261-22.397-14.982,10.522-.263,31.079,15.74,30.195,5.186-.286,3.842-2.172,4.457-2.804.348-.357,3.133-.361,3.695-1.134.557-.765-.073-2.386.145-2.705Z"/>
      <path class="cls-4" d="M522.476,543.955c-4.463-4.562,6.047-23.163,11.964-24.515,4.033-.921,9.316-.587,12.202,2.754,11.565,13.388-19.784,26.24-24.166,21.761Z"/>
      <path class="cls-4" d="M491.52,541.311c-.218.319.412,1.94-.145,2.705-.562.773-3.347.777-3.695,1.134-9.567-.919-31.417-11.23-20.68-23.074,10.451-11.527,25.514,8.633,24.52,19.235Z"/>
      <path class="cls-6" d="M487.68,545.15c-.616.632.728,2.518-4.457,2.804-16.003.883-30.723-19.674-15.74-30.195,13.222-9.285,31.416,9.878,26.261,22.397-.798,1.939-2.134,1.025-2.223,1.155.994-10.602-14.069-30.762-24.52-19.235-10.738,11.844,11.113,22.155,20.68,23.074Z"/>
    </g>
  </g>
</svg>